<?xml version="1.0" standalone="no"?>
<!DOCTYPE svg PUBLIC "-//W3C//DTD SVG 20010904//EN"
 "http://www.w3.org/TR/2001/REC-SVG-20010904/DTD/svg10.dtd">
<svg version="1.0" xmlns="http://www.w3.org/2000/svg"
 width="499.000000pt" height="280.000000pt" viewBox="0 0 499.000000 280.000000"
 preserveAspectRatio="xMidYMid meet">

<g transform="translate(0.000000,280.000000) scale(0.100000,-0.100000)"
fill="#000000" stroke="none">
<path d="M4785 2026 c-52 -23 -78 -60 -83 -119 -8 -95 47 -157 138 -157 111 0
177 101 132 203 -32 73 -114 105 -187 73z m121 -32 c33 -22 54 -64 54 -109 0
-26 -9 -45 -34 -73 -30 -32 -40 -37 -78 -37 -55 0 -95 25 -115 72 -21 51 -10
95 33 132 40 36 98 42 140 15z"/>
<path d="M4790 1895 c0 -69 3 -85 15 -85 10 0 15 11 15 35 0 19 4 35 9 35 5 0
19 -16 31 -35 12 -19 28 -35 37 -35 13 0 12 5 -4 33 -18 31 -18 33 -1 50 41
39 5 87 -64 87 l-38 0 0 -85z m86 43 c8 -12 -21 -38 -43 -38 -7 0 -13 11 -13
25 0 20 5 25 24 25 14 0 28 -5 32 -12z"/>
<path d="M229 1683 c-106 -185 -200 -347 -207 -360 l-13 -23 203 0 c202 0 203
0 173 19 -120 72 -139 228 -40 326 80 80 198 85 282 12 l36 -32 -29 50 c-16
28 -67 117 -114 198 -47 81 -87 147 -91 147 -3 0 -93 -151 -200 -337z"/>
<path d="M1160 1865 l0 -55 90 0 90 0 0 -255 0 -255 65 0 65 0 0 255 0 255 95
0 95 0 0 55 0 55 -250 0 -250 0 0 -55z"/>
<path d="M3290 1610 l0 -310 65 0 65 0 0 104 0 103 87 7 c151 11 200 34 234
110 22 48 25 133 5 179 -17 43 -76 93 -123 106 -21 6 -104 11 -185 11 l-148 0
0 -310z m272 200 c46 -13 68 -43 68 -93 0 -68 -57 -103 -160 -95 l-45 3 -3 84
c-2 46 -1 90 2 98 6 16 84 18 138 3z"/>
<path d="M4250 1610 l0 -310 60 0 60 0 0 73 c0 64 3 76 23 95 13 12 26 22 29
22 4 0 33 -43 65 -95 l58 -95 73 0 c39 0 72 2 72 5 0 3 -40 65 -89 139 l-89
133 79 79 c43 43 79 82 79 86 0 5 -31 8 -69 8 l-68 0 -77 -80 c-42 -44 -78
-80 -81 -80 -3 0 -5 74 -5 165 l0 165 -60 0 -60 0 0 -310z"/>
<path d="M2100 1821 l0 -70 -32 -3 c-31 -3 -33 -6 -36 -45 l-3 -43 35 0 36 0
0 -149 c0 -144 1 -151 24 -178 21 -25 31 -28 100 -31 l76 -4 0 46 c0 44 -1 46
-28 46 -47 0 -52 14 -52 147 l0 123 41 0 40 0 -3 43 c-3 41 -4 42 -40 45 l-38
3 0 70 0 69 -60 0 -60 0 0 -69z"/>
<path d="M1694 1741 c-134 -61 -165 -279 -56 -388 46 -46 94 -66 162 -66 88 0
170 45 206 114 12 25 12 27 -9 33 -49 13 -106 7 -117 -13 -15 -30 -73 -45
-115 -31 -36 12 -57 36 -70 78 l-6 22 169 0 170 0 -5 43 c-2 23 -19 71 -36
107 -28 56 -39 68 -86 92 -65 34 -144 37 -207 9z m170 -107 c46 -47 37 -54
-69 -54 -106 0 -117 9 -70 55 35 36 102 35 139 -1z"/>
<path d="M2543 1740 c-18 -11 -33 -24 -33 -30 0 -5 -4 -10 -10 -10 -5 0 -10
11 -10 25 0 25 -2 26 -57 23 l-58 -3 -3 -222 -2 -223 60 0 60 0 0 108 c0 59 4
124 9 145 12 52 46 86 93 93 l38 7 0 53 c0 52 -1 54 -27 54 -16 0 -43 -9 -60
-20z"/>
<path d="M2743 1742 c-40 -21 -63 -53 -73 -98 l-8 -34 53 0 c44 0 53 3 58 20
8 32 71 54 113 40 19 -7 38 -20 44 -29 17 -33 -9 -50 -98 -66 -142 -25 -192
-64 -192 -152 0 -76 71 -133 166 -133 46 0 114 24 114 41 0 17 18 9 23 -11 4
-17 14 -20 66 -20 58 0 61 1 51 19 -6 11 -10 88 -10 178 0 173 -8 201 -66 240
-40 26 -197 30 -241 5z m187 -266 c0 -60 -23 -87 -81 -93 -75 -9 -117 32 -80
78 13 16 105 51 154 58 4 1 7 -19 7 -43z"/>
<path d="M3848 1739 c-43 -22 -65 -51 -74 -97 l-6 -32 56 0 c40 0 56 4 56 13
0 8 8 21 18 29 42 37 127 26 138 -18 4 -14 3 -29 -2 -34 -5 -5 -54 -18 -109
-29 -110 -23 -141 -40 -169 -95 -45 -91 37 -186 160 -186 46 0 114 24 114 41
0 5 5 9 10 9 6 0 10 -9 10 -20 0 -18 7 -20 67 -20 52 0 64 3 55 12 -8 8 -12
62 -12 177 0 192 -8 218 -83 251 -59 27 -178 27 -229 -1z m192 -261 c0 -24 -6
-50 -13 -59 -32 -42 -113 -53 -147 -19 -25 25 -25 42 0 65 16 14 119 51 153
54 4 1 7 -18 7 -41z"/>
<path d="M722 1635 l-34 -44 38 -46 c30 -35 41 -42 50 -33 6 7 39 48 73 91
l62 77 -78 0 -78 -1 -33 -44z"/>
<path d="M429 1561 c-33 -33 -39 -82 -14 -118 20 -29 75 -46 107 -34 24 9 88
74 88 90 0 4 -17 26 -38 49 -50 54 -97 58 -143 13z"/>
<path d="M664 1374 c-10 -14 -33 -36 -53 -50 l-36 -24 135 0 c127 1 133 2 96
15 -21 7 -55 30 -75 49 -20 20 -40 36 -44 36 -3 0 -14 -12 -23 -26z"/>
<path d="M564 1046 c-68 -31 -95 -116 -59 -186 41 -79 193 -79 235 1 18 32 16
104 -4 133 -36 55 -113 79 -172 52z m108 -66 c25 -26 29 -36 24 -63 -18 -94
-150 -87 -150 8 0 29 7 43 28 61 36 32 61 30 98 -6z"/>
<path d="M1313 1046 c-89 -40 -96 -188 -12 -231 41 -22 112 -19 140 4 24 20
24 20 4 35 -11 9 -27 13 -35 9 -8 -3 -27 -8 -42 -10 -62 -11 -93 83 -43 132
27 28 33 29 68 16 18 -7 30 -6 43 4 18 13 18 15 3 30 -22 23 -87 28 -126 11z"/>
<path d="M1765 1049 c-32 -18 -45 -40 -45 -75 0 -36 12 -49 66 -68 42 -14 57
-42 28 -53 -9 -3 -30 -2 -45 4 -23 9 -31 8 -46 -9 -17 -19 -17 -20 2 -34 29
-22 111 -18 135 6 48 48 31 108 -39 128 -48 15 -59 29 -38 50 13 12 21 13 41
4 20 -9 27 -7 42 9 12 14 14 23 7 30 -16 16 -85 21 -108 8z"/>
<path d="M3310 1047 c-33 -17 -55 -57 -47 -89 5 -18 19 -31 49 -43 59 -23 71
-34 57 -51 -14 -17 -51 -18 -67 -2 -8 8 -16 5 -31 -13 -19 -24 -19 -24 2 -36
39 -22 105 -16 132 12 45 44 28 96 -41 125 -24 11 -44 26 -44 34 0 20 35 30
59 17 15 -9 22 -6 35 13 15 24 14 25 -16 35 -40 14 -57 14 -88 -2z"/>
<path d="M3663 1045 c-90 -39 -97 -179 -13 -229 31 -18 114 -21 154 -6 24 9
26 14 26 75 l0 65 -50 0 c-47 0 -50 -2 -50 -25 0 -19 5 -25 21 -25 15 0 20 -5
17 -22 -2 -18 -10 -24 -40 -26 -50 -4 -78 24 -78 77 0 62 58 99 112 70 17 -9
24 -7 41 10 l21 20 -37 16 c-45 18 -82 19 -124 0z"/>
<path d="M3935 1041 c-48 -21 -65 -53 -65 -119 0 -77 48 -122 130 -122 87 0
136 54 128 142 -6 54 -27 84 -75 104 -43 18 -70 17 -118 -5z m111 -55 c58 -49
25 -136 -51 -136 -36 0 -75 37 -75 71 0 29 21 66 44 77 33 17 53 14 82 -12z"/>
<path d="M4255 1053 c-68 -17 -108 -91 -87 -161 17 -58 52 -85 115 -90 67 -5
108 14 131 62 53 112 -37 219 -159 189z m90 -68 c52 -51 21 -135 -49 -135 -79
0 -105 121 -33 150 37 15 57 11 82 -15z"/>
<path d="M30 926 l0 -126 25 0 c23 0 25 3 25 50 l0 50 36 0 c36 0 73 15 86 34
13 18 9 71 -6 91 -11 16 -30 20 -90 23 l-76 4 0 -126z m114 64 c17 -17 -3 -40
-34 -40 -27 0 -30 3 -30 31 0 29 2 31 28 24 15 -3 31 -10 36 -15z"/>
<path d="M252 928 l3 -123 28 -3 c26 -3 27 -2 27 47 0 66 16 66 53 1 24 -42
33 -50 58 -50 16 0 29 2 29 5 0 3 -13 26 -29 52 l-29 47 24 18 c18 15 24 29
24 58 0 55 -25 70 -118 70 l-73 0 3 -122z m131 63 c17 -17 -5 -41 -39 -41 -31
0 -34 2 -34 31 0 30 1 31 32 25 18 -3 36 -10 41 -15z"/>
<path d="M780 1025 c0 -22 4 -25 35 -25 l35 0 0 -100 0 -100 25 0 25 0 0 100
0 100 35 0 c31 0 35 3 35 25 0 25 0 25 -95 25 -95 0 -95 0 -95 -25z"/>
<path d="M1020 925 l0 -125 85 0 c84 0 85 0 85 25 0 22 -4 24 -57 27 -51 3
-58 6 -61 26 -3 21 0 22 52 22 53 0 56 1 56 24 0 23 -4 25 -52 28 -46 3 -53 6
-56 26 -3 21 0 22 57 22 58 0 61 1 61 25 0 25 -1 25 -85 25 l-85 0 0 -125z"/>
<path d="M1482 1028 c2 -18 11 -24 35 -26 l32 -3 3 -97 c3 -96 3 -97 28 -97
25 0 25 1 28 98 l3 97 34 0 c31 0 35 3 35 25 l0 25 -101 0 c-98 0 -100 0 -97
-22z"/>
<path d="M2045 1038 c2 -7 18 -59 34 -116 36 -121 36 -122 61 -122 15 0 24 16
42 76 13 41 28 75 33 75 6 1 20 -34 33 -75 18 -60 27 -76 42 -76 24 0 32 14
64 126 14 50 28 99 32 108 5 12 0 16 -23 16 -28 0 -30 -3 -47 -76 -10 -42 -22
-72 -26 -67 -5 4 -17 37 -27 73 -17 57 -22 65 -45 68 -25 3 -28 -2 -49 -67
-13 -39 -26 -71 -30 -71 -4 0 -15 32 -24 70 -16 66 -19 70 -46 70 -18 0 -27
-4 -24 -12z"/>
<path d="M2440 925 c0 -118 1 -125 20 -125 18 0 20 7 20 55 l0 55 54 0 55 0 3
-52 c3 -49 5 -53 28 -53 l25 0 3 123 3 122 -31 0 c-29 0 -30 -2 -30 -45 l0
-45 -55 0 -55 0 0 45 c0 38 -3 45 -20 45 -19 0 -20 -7 -20 -125z"/>
<path d="M2745 938 c-26 -62 -50 -119 -52 -125 -3 -9 4 -13 21 -13 18 0 30 8
41 30 14 27 21 30 60 30 39 0 46 -3 60 -30 11 -21 23 -30 40 -30 14 0 25 4 25
8 0 5 -22 60 -49 123 -42 96 -53 114 -74 117 -21 3 -28 -7 -72 -110z m95 -25
c0 -7 -11 -13 -25 -13 -28 0 -30 6 -14 47 l11 28 13 -25 c8 -14 14 -31 15 -37z"/>
<path d="M2932 1028 c2 -18 11 -24 35 -26 l32 -3 3 -97 c3 -92 4 -97 26 -100
22 -3 22 -1 22 97 l0 101 35 0 c31 0 35 3 35 25 0 25 0 25 -96 25 -93 0 -95
-1 -92 -22z"/>
<path d="M3175 1038 c-2 -7 -8 -30 -14 -50 -9 -36 -8 -38 13 -38 18 0 25 10
38 50 l16 50 -24 0 c-14 0 -26 -6 -29 -12z"/>
<path d="M4470 925 l0 -125 48 0 c133 0 202 68 169 167 -19 57 -64 83 -148 83
l-69 0 0 -125z m145 50 c43 -42 29 -96 -30 -115 -57 -19 -65 -10 -65 70 l0 70
35 0 c25 0 44 -8 60 -25z"/>
</g>
</svg>
